#!OML:ASF F:\VICON\USERDATA\INSTALL\Justin_Nancy\Justin_Nancy.ASF
:FULLY-SPECIFIED
:DEGREES
166
root -2.38247 17.2441 2.14338 2.8821 35.3263 2.14616
lowerback 7.75394 0.271247 -2.45611
upperback 0.419729 0.226957 1.79865
thorax -3.93272 0.174886 3.22496
lowerneck -15.2269 -2.55559 -8.73774
upperneck 22.3628 -1.89494 2.77783
head 9.73036 -1.26945 2.19351
rclavicle 1.74434e-014 -2.06736e-014
rhumerus -36.7272 -12.7908 -77.0928
rradius 34.0308
rwrist 6.02207
rhand -16.4495 13.2277
rfingers 7.12502
rthumb 9.76649 -16.5258
lclavicle 1.74434e-014 -2.06736e-014
lhumerus -35.9017 17.1775 81.8614
lradius 19.8195
lwrist -18.5636
lhand -12.5345 20.0753
lfingers 7.12502
lthumb 13.5419 49.615
rfemur -18.038 -0.309948 14.913
rtibia 66.4732
rfoot -9.1196 -5.04825
rtoes -9.24939
lfemur -19.606 0.684499 -31.5508
ltibia 34.9563
lfoot -13.034 2.61417
ltoes 12.9155
167
root -2.26495 17.2238 2.32202 3.17222 35.3484 2.71269
lowerback 7.75931 0.303456 -2.91427
upperback 0.480449 0.224504 1.68197
thorax -3.87387 0.178724 3.36266
lowerneck -15.0411 -2.54786 -8.8086
upperneck 22.3876 -1.9423 3.01799
head 9.70904 -1.2712 2.28495
rclavicle 3.04141e-014 0
rhumerus -36.9244 -12.826 -77.18
rradius 33.9749
rwrist 5.42721
rhand -16.6548 13.0574
rfingers 7.12502
rthumb 9.5684 -16.7053
lclavicle 3.04141e-014 0
lhumerus -35.4217 16.926 82.1769
lradius 20.4058
lwrist -18.7812
lhand -12.7733 20.1866
lfingers 7.12502
lthumb 13.3117 49.7414
rfemur -19.8337 -0.552107 14.4825
rtibia 66.6992
rfoot -10.2141 -5.76015
rtoes -10.3482
lfemur -18.7546 0.787863 -32.0646
ltibia 34.9312
lfoot -13.5931 2.86692
ltoes 11.0967
168
root -2.15145 17.2134 2.50739 3.21723 35.5289 2.92787
lowerback 7.82478 0.205198 -3.1802
upperback 0.598044 0.0695742 1.67955
thorax -3.77623 0.102855 3.52756
lowerneck -15.0289 -2.53999 -8.88662
upperneck 22.3882 -1.96845 3.24147
head 9.71063 -1.26506 2.37334
rclavicle 7.45443e-015 -7.95139e-016
rhumerus -36.9077 -12.7361 -77.3847
rradius 33.9083
rwrist 4.65304
rhand -16.7335 12.9255
rfingers 7.12502
rthumb 9.49247 -16.8407
lclavicle 7.45443e-015 -7.95139e-016
lhumerus -34.9 16.332 82.7098
lradius 21.3492
lwrist -18.2841
lhand -12.401 19.1417
lfingers 7.12502
lthumb 13.6706 48.6727
rfemur -21.4402 -0.513726 14.4735
rtibia 66.5477
rfoot -11.2119 -6.44871
rtoes -9.51239
lfemur -17.8295 0.819144 -32.1936
ltibia 34.967
lfoot -14.3351 2.91811
ltoes 10.2366
169
root -2.0316 17.2018 2.69199 3.3257 35.8094 3.16624
lowerback 7.93005 0.0859976 -3.32997
upperback 0.641287 -0.106052 1.64787
thorax -3.77508 0.0172547 3.59909
lowerneck -14.928 -2.51175 -8.70908
upperneck 22.3449 -1.97172 3.1896
head 9.67309 -1.25717 2.32503
rclavicle -5.47652e-014 2.14687e-014
rhumerus -36.9727 -12.6687 -77.5283
rradius 33.879
rwrist 3.60772
rhand -16.8947 12.5698
rfingers 7.12502
rthumb 9.33693 -17.2034
lclavicle -5.47652e-014 2.14687e-014
lhumerus -34.4985 15.3863 83.3526
lradius 22.4418
lwrist -17.3369
lhand -12.0471 18.5338
lfingers 7.12502
lthumb 14.0116 48.0416
rfemur -23.0191 -0.461912 14.3518
rtibia 66.0586
rfoot -12.3046 -6.80024
rtoes -7.1072
lfemur -16.8933 0.571947 -32.3399
ltibia 35.0529
lfoot -15.2096 3.03968
ltoes 11.0259
170
root -1.90489 17.1792 2.87963 3.55311 36.1144 3.61409
lowerback 7.88591 -0.0416611 -3.63947
upperback 0.785732 -0.30201 1.60204
thorax -3.58169 -0.0819681 3.74643
lowerneck -15.0275 -2.47586 -8.58077
upperneck 22.1946 -1.92054 3.08214
head 9.63255 -1.23223 2.27024
rclavicle 3.91606e-014 -9.54166e-015
rhumerus -36.9421 -12.5073 -77.6857
rradius 33.9137
rwrist 2.72162
rhand -16.8801 12.1291
rfingers 7.12502
rthumb 9.35102 -17.6435
lclavicle 3.91606e-014 -9.54166e-015
lhumerus -34.1071 13.8578 84.3218
lradius 23.9072
lwrist -15.5559
lhand -12.4568 19.3497
lfingers 7.12502
lthumb 13.6168 48.8843
rfemur -24.4451 -0.517329 13.9822
rtibia 65.3092
rfoot -13.2423 -6.81434
rtoes -5.6426
lfemur -15.9317 0.24803 -32.7307
ltibia 35.0889
lfoot -15.9789 3.36012
ltoes 11.9025
171
root -1.77996 17.1593 3.06948 3.57266 36.3677 3.92807
lowerback 7.94193 -0.153841 -3.84548
upperback 0.971585 -0.470664 1.5409
thorax -3.40304 -0.170184 3.81632
lowerneck -15.2371 -2.48096 -8.6898
upperneck 22.1224 -1.9065 3.18307
head 9.64757 -1.22195 2.32386
rclavicle -2.49475e-014 -3.97569e-015
rhumerus -36.8288 -12.2531 -77.9871
rradius 33.7527
rwrist 2.01685
rhand -17.1749 12.147
rfingers 7.12502
rthumb 9.06655 -17.6381
lclavicle -2.49475e-014 -3.97569e-015
lhumerus -33.8553 12.1581 85.1607
lradius 25.5095
lwrist -13.5561
lhand -13.2957 18.5247
lfingers 7.12502
lthumb 12.8081 48.1118
rfemur -25.6157 -0.214106 13.7434
rtibia 64.301
rfoot -13.9444 -6.61515
rtoes -3.30046
lfemur -14.8142 0.169476 -33.0148
ltibia 35.0611
lfoot -16.729 3.56019
ltoes 12.2275
172
root -1.65974 17.1426 3.25307 3.81913 36.7401 4.36004
lowerback 7.98972 -0.298742 -4.11096
upperback 1.04271 -0.69037 1.45075
thorax -3.33292 -0.279291 3.89568
lowerneck -15.2808 -2.48405 -8.90136
upperneck 22.1424 -1.90595 3.40262
head 9.66704 -1.215 2.43644
rclavicle 4.19436e-014 -7.95139e-015
rhumerus -36.8255 -12.0754 -78.2499
rradius 33.619
rwrist 1.50935
rhand -17.638 12.5203
rfingers 7.12502
rthumb 8.61973 -17.2837
lclavicle 4.19436e-014 -7.95139e-015
lhumerus -33.5765 10.5816 85.8531
lradius 26.8659
lwrist -11.5252
lhand -13.4198 17.4805
lfingers 7.12502
lthumb 12.6885 47.0751
rfemur -26.9372 0.0825049 13.3583
rtibia 63.0966
rfoot -14.4889 -6.2008
rtoes -1.69592
lfemur -13.8238 -0.0975847 -33.3666
ltibia 34.9434
lfoot -17.4358 3.62003
ltoes 13.0549
173
root -1.54657 17.1199 3.43543 4.10234 37.1107 4.78667
lowerback 8.07121 -0.427845 -4.5406
upperback 1.13292 -0.900528 1.46119
thorax -3.25705 -0.381881 4.17249
lowerneck -15.4335 -2.44114 -8.8853
upperneck 22.1855 -1.81417 3.31613
head 9.70413 -1.18075 2.41525
rclavicle -2.73329e-014 1.59028e-014
rhumerus -36.6777 -12.0356 -78.3125
rradius 33.5673
rwrist 1.12242
rhand -17.6463 12.4769
rfingers 7.12502
rthumb 8.61168 -17.3275
lclavicle -2.73329e-014 1.59028e-014
lhumerus -32.9772 10.0314 86.2577
lradius 27.5845
lwrist -10.6862
lhand -13.3359 17.8637
lfingers 7.12502
lthumb 12.7694 47.4532
rfemur -28.2951 0.210121 12.9494
rtibia 61.6946
rfoot -14.9728 -5.54314
rtoes -3.56612
lfemur -12.9059 -0.396234 -33.7042
ltibia 34.7293
lfoot -17.9011 3.836
ltoes 12.8177
174
root -1.42913 17.1089 3.62188 4.23567 37.4085 5.00899
lowerback 8.15976 -0.564396 -4.85196
upperback 1.21983 -1.10937 1.51258
thorax -3.18677 -0.485352 4.42526
lowerneck -15.5081 -2.41413 -8.75739
upperneck 22.0376 -1.77318 3.18836
head 9.66052 -1.16305 2.35212
rclavicle 9.44227e-014 1.59028e-015
rhumerus -36.6038 -11.6125 -78.5536
rradius 33.6112
rwrist 0.554051
rhand -17.4231 12.1152
rfingers 7.12502
rthumb 8.82706 -17.6802
lclavicle 9.44227e-014 1.59028e-015
lhumerus -32.4236 9.83082 86.4749
lradius 28.2998
lwrist -10.1478
lhand -13.1632 19.1296
lfingers 7.12502
lthumb 12.9359 48.7086
rfemur -29.4151 0.293331 12.7674
rtibia 60.0161
rfoot -15.2577 -5.27036
rtoes -7.95115
lfemur -11.8297 -0.559876 -33.8352
ltibia 34.3753
lfoot -18.3327 3.94488
ltoes 12.2719
175
root -1.30735 17.0995 3.81726 4.40283 37.6268 5.24091
lowerback 8.1426 -0.659001 -5.15356
upperback 1.26505 -1.25991 1.50599
thorax -3.10663 -0.560282 4.60384
lowerneck -15.4096 -2.38696 -8.67362
upperneck 21.866 -1.77104 3.2012
head 9.57987 -1.1516 2.34118
rclavicle 5.725e-014 -2.38542e-015
rhumerus -36.6679 -11.507 -78.7654
rradius 33.5238
rwrist 0.500547
rhand -17.3265 12.3997
rfingers 7.12502
rthumb 8.92026 -17.3917
lclavicle 5.725e-014 -2.38542e-015
lhumerus -32.1848 8.76078 86.8972
lradius 29.5966
lwrist -8.53476
lhand -13.1653 21.5688
lfingers 7.12502
lthumb 12.9338 51.1479
rfemur -30.3076 0.54348 12.579
rtibia 58.0713
rfoot -15.4398 -5.70929
rtoes -14.9013
lfemur -10.6369 -0.605094 -33.9539
ltibia 33.8092
lfoot -18.8478 4.07188
ltoes 11.6396
176
root -1.18849 17.0882 4.01022 4.78912 37.7974 5.6359
lowerback 8.12123 -0.679082 -5.53007
upperback 1.21174 -1.32288 1.42319
thorax -3.1361 -0.585922 4.7374
lowerneck -15.4497 -2.44352 -8.81299
upperneck 22.067 -1.88229 3.49993
head 9.66899 -1.18409 2.45749
rclavicle 7.44449e-014 -1.59028e-014
rhumerus -36.8694 -11.7302 -78.8462
rradius 33.5159
rwrist 0.885274
rhand -17.0753 12.5498
rfingers 7.12502
rthumb 9.16267 -17.2312
lclavicle 7.44449e-014 -1.59028e-014
lhumerus -32.1324 6.90363 87.5087
lradius 31.18
lwrist -6.31389
lhand -13.9789 23.9129
lfingers 7.12502
lthumb 12.1495 53.5401
rfemur -31.2933 0.942637 12.1629
rtibia 55.8808
rfoot -14.8748 -5.43913
rtoes -13.9739
lfemur -9.56678 -0.336973 -34.2081
ltibia 33.0306
lfoot -19.0184 4.22333
ltoes 8.85956
